<svg width="41" height="37" viewBox="0 0 41 37" fill="none" xmlns="http://www.w3.org/2000/svg">
<path d="M25.1022 0.875C27.0017 0.894562 28.5488 1.87264 29.4497 3.63319C29.6822 4.09777 30.0066 4.77632 30.3462 5.49211L30.7562 6.35763L30.9576 6.7826L31.1534 7.21296C31.2317 7.34989 31.3688 7.4477 31.5451 7.4477C36.2451 7.4477 40.0834 11.2818 40.0834 15.9766V27.5961C40.0834 32.2909 36.2451 36.125 31.5451 36.125H9.45508C4.7355 36.125 0.916748 32.2909 0.916748 27.5961V15.9766C0.916748 11.2818 4.7355 7.4477 9.45508 7.4477C9.61175 7.4477 9.76842 7.36945 9.82717 7.21296L9.94467 6.97822C10.493 5.82408 11.1588 4.41565 11.5505 3.63319C12.4513 1.87264 13.9788 0.894562 15.8784 0.875H25.1022ZM20.5001 13.414C18.4438 13.414 16.5051 14.216 15.0363 15.6831C13.5872 17.1503 12.7842 19.0673 12.8038 21.1017C12.8038 23.1557 13.6067 25.0727 15.0559 26.5398C16.5247 27.9874 18.4438 28.7894 20.5001 28.7894C22.6151 28.7894 24.5342 27.9287 25.9247 26.5398C27.3151 25.1509 28.1767 23.2339 28.1963 21.1017C28.1963 19.0673 27.3934 17.1307 25.9442 15.6636C24.4951 14.216 22.5563 13.414 20.5001 13.414ZM20.5001 16.3482C21.773 16.3482 22.9676 16.8373 23.8684 17.7371C24.7692 18.6369 25.2588 19.8302 25.2588 21.1017C25.2392 23.7229 23.1242 25.8552 20.5001 25.8552C19.2272 25.8552 18.0326 25.3661 17.1317 24.4663C16.2309 23.5665 15.7413 22.3732 15.7413 21.1017V21.0821C15.7217 19.8498 16.2113 18.6565 17.1122 17.7567C18.0326 16.8373 19.2272 16.3482 20.5001 16.3482ZM31.4863 12.9445C30.5072 12.9445 29.7238 13.7465 29.7238 14.7246C29.7238 15.7027 30.5072 16.4852 31.4863 16.4852C32.4655 16.4852 33.2684 15.7027 33.2684 14.7246C33.2684 13.7465 32.4655 12.9445 31.4863 12.9445Z" fill="black"/>
</svg>
