<svg width="35" height="35" viewBox="0 0 35 35" fill="none" xmlns="http://www.w3.org/2000/svg">
<path d="M17.5 23.3333C19.9162 23.3333 21.875 21.3746 21.875 18.9583C21.875 16.5421 19.9162 14.5833 17.5 14.5833C15.0838 14.5833 13.125 16.5421 13.125 18.9583C13.125 21.3746 15.0838 23.3333 17.5 23.3333Z" stroke="black" stroke-width="1.5"/>
<path d="M14.2597 30.625H20.7405C25.292 30.625 27.5684 30.625 29.2032 29.5531C29.9086 29.0908 30.5161 28.4942 30.9911 27.7973C32.0834 26.1931 32.0834 23.9575 32.0834 19.4892C32.0834 15.0194 32.0834 12.7852 30.9911 11.181C30.5161 10.4841 29.9086 9.8875 29.2032 9.42521C28.1532 8.73542 26.8378 8.48896 24.8238 8.40146C23.8628 8.40146 23.0359 7.68687 22.8478 6.76083C22.704 6.08252 22.3305 5.47464 21.7903 5.03993C21.2501 4.60522 20.5764 4.37035 19.883 4.375H15.1172C13.6763 4.375 12.4353 5.37396 12.1524 6.76083C11.9642 7.68687 11.1374 8.40146 10.1763 8.40146C8.16383 8.48896 6.84841 8.73687 5.79696 9.42521C5.09203 9.88759 4.485 10.4842 4.0105 11.181C2.91675 12.7852 2.91675 15.0194 2.91675 19.4892C2.91675 23.9575 2.91675 26.1917 4.00904 27.7973C4.48154 28.4915 5.08821 29.0879 5.79696 29.5531C7.43175 30.625 9.70821 30.625 14.2597 30.625Z" stroke="black" stroke-width="1.5"/>
<path d="M27.7083 14.5833H26.25" stroke="black" stroke-width="1.5" stroke-linecap="round"/>
</svg>
