<svg width="34" height="36" viewBox="0 0 34 36" fill="none" xmlns="http://www.w3.org/2000/svg">
<path d="M33.3315 25.756L28.2236 13.3521C27.2934 11.0815 25.9063 9.79364 24.3234 9.70892C22.7568 9.62419 21.2391 10.7595 20.0805 12.9285L16.9798 18.7068C16.3271 19.9269 15.3969 20.6555 14.3851 20.7402C13.357 20.8419 12.3289 20.2827 11.4966 19.1813L11.1376 18.7068C9.97894 17.1987 8.54287 16.4701 7.07416 16.6226C5.60545 16.7751 4.34889 17.8257 3.51662 19.5371L0.693432 25.3832C-0.318346 27.5013 -0.220433 29.9583 0.970854 31.9579C2.16214 33.9574 4.23465 35.1605 6.50299 35.1605H27.3261C29.5128 35.1605 31.5527 34.0252 32.7603 32.1273C34.0006 30.2295 34.1964 27.8402 33.3315 25.756Z" fill="black"/>
<path d="M8.77339 11.4549C11.8197 11.4549 14.2891 8.89063 14.2891 5.72744C14.2891 2.56427 11.8197 0 8.77339 0C5.72709 0 3.25757 2.56427 3.25757 5.72744C3.25757 8.89063 5.72709 11.4549 8.77339 11.4549Z" fill="black"/>
</svg>
