<svg width="30" height="30" viewBox="0 0 30 30" fill="none" xmlns="http://www.w3.org/2000/svg">
<path d="M2.42794 17.1386C1.78401 17.1386 1.16645 16.8677 0.711127 16.3856C0.2558 15.9035 0 15.2496 0 14.5678C0 13.886 0.2558 13.2321 0.711127 12.75C1.16645 12.2679 1.78401 11.9971 2.42794 11.9971H26.7073C27.3512 11.9971 27.9688 12.2679 28.4241 12.75C28.8794 13.2321 29.1352 13.886 29.1352 14.5678C29.1352 15.2496 28.8794 15.9035 28.4241 16.3856C27.9688 16.8677 27.3512 17.1386 26.7073 17.1386H2.42794Z" fill="white"/>
<path d="M11.9966 2.42794C11.9966 1.78401 12.2674 1.16645 12.7495 0.711127C13.2317 0.2558 13.8855 0 14.5673 0C15.2491 0 15.903 0.2558 16.3851 0.711127C16.8672 1.16645 17.1381 1.78401 17.1381 2.42794V26.7073C17.1381 27.3512 16.8672 27.9688 16.3851 28.4241C15.903 28.8794 15.2491 29.1352 14.5673 29.1352C13.8855 29.1352 13.2317 28.8794 12.7495 28.4241C12.2674 27.9688 11.9966 27.3512 11.9966 26.7073V2.42794Z" fill="white"/>
</svg>
